<svg xmlns="http://www.w3.org/2000/svg" width="32" height="32" viewBox="0 0 32 32"><path fill="#283cdc" d="M29 9.2c-.9.4-1.8.6-2.8.7 1-.6 1.8-1.5 2.2-2.6-1 .5-2 .9-3.1 1.1-1-.8-2.3-1.4-3.7-1.4-2.7 0-4.9 2.1-4.9 4.7 0 .4 0 .7.1 1.1-4.1-.2-7.7-2.1-10.1-4.9-.5.6-.7 1.5-.7 2.3 0 1.6.9 3.1 2.2 3.9-.8 0-1.6-.2-2.2-.6v.1c0 2.3 1.7 4.2 3.9 4.6-.4.1-.8.2-1.3.2-.3 0-.6 0-.9-.1.6 1.9 2.4 3.2 4.6 3.3-1.7 1.3-3.8 2-6.1 2-.4 0-.8 0-1.2-.1 2.2 1.3 4.8 2.1 7.5 2.1 9.1 0 14-7.1 14-13.3v-.6c1-.7 1.8-1.6 2.5-2.5z"/></svg>
